<!-- <svg id="Layer_1" data-name="Layer 1" xmlns="http://www.w3.org/2000/svg" viewBox="0 0 226.92 203.2"><defs><style>.cls-1{fill:#80913f;}.cls-2{fill:#fff; } </style></defs><path class="cls-1" d="M120.44,101.59v0s0,0,0,0c-.24.52-.47,1-.71,1.57a.42.42,0,0,0,0,.12c-.05.53-.11,1.07-.16,1.61a.29.29,0,0,1-.13.23l-1.28.92a.61.61,0,0,0-.16.16c-.32.43-.63.87-.94,1.31a.26.26,0,0,1-.14.09c-.37,0-.74.07-1.11.12a3.18,3.18,0,0,0-.77.13c-.5.19-1,.43-1.45.64a.31.31,0,0,1-.19,0l-1.48-.67-.15-.05-1.66-.17a.26.26,0,0,1-.18-.09c-.31-.44-.62-.88-.94-1.31a.61.61,0,0,0-.16-.16l-1.31-1a.2.2,0,0,1-.09-.13c0-.38-.07-.76-.12-1.14a2.17,2.17,0,0,0-.13-.76c-.22-.48-.43-1-.64-1.43a.31.31,0,0,1,0-.19c.22-.5.44-1,.67-1.48a.75.75,0,0,0,0-.16c.05-.55.1-1.1.16-1.65a.29.29,0,0,1,.1-.18c.43-.32.87-.63,1.31-.94a.61.61,0,0,0,.16-.16l.94-1.31a.22.22,0,0,1,.14-.09c.36,0,.72-.09,1.08-.11a3,3,0,0,0,1.21-.31c.36-.19.74-.35,1.11-.52h0s0,0,0,0l1.55.71.12,0c.54.05,1.07.11,1.61.15a.3.3,0,0,1,.23.14c.3.42.6.85.91,1.27a1,1,0,0,0,.18.18l1.3.93a.22.22,0,0,1,.09.14c0,.35.09.7.11,1.06a3.08,3.08,0,0,0,.33,1.29C120.13,100.88,120.28,101.24,120.44,101.59Zm-4.08,1.06c0-.06,0-.09,0-.11a3,3,0,0,0,.13-1.14,4.24,4.24,0,0,0-.55-1.5,19.79,19.79,0,0,0-2.49-3.4l-.06,0c-.39.48-.78,1-1.16,1.43a13.63,13.63,0,0,0-1.54,2.4,2.86,2.86,0,0,0-.28,2c0,.1,0,.21.09.33h-.79c0,.31,0,.6,0,.89a2.47,2.47,0,0,0,2.5,2.4h2.49a2.33,2.33,0,0,0,1.35-.43,2.8,2.8,0,0,0,1-2.85Z"/><path class="cls-2" d="M116.36,102.65h.77a2.8,2.8,0,0,1-1,2.85,2.33,2.33,0,0,1-1.35.43h-2.49a2.47,2.47,0,0,1-2.5-2.4c0-.29,0-.58,0-.89h.79c0-.12-.06-.23-.09-.33a2.86,2.86,0,0,1,.28-2,13.63,13.63,0,0,1,1.54-2.4c.38-.48.77-1,1.16-1.43l.06,0A19.79,19.79,0,0,1,116,99.9a4.24,4.24,0,0,1,.55,1.5,3,3,0,0,1-.13,1.14S116.38,102.59,116.36,102.65Zm-2.9-4.93-.08.08c-.39.52-.78,1-1.15,1.55a7.72,7.72,0,0,0-.93,1.69,1.93,1.93,0,0,0,.08,1.51.14.14,0,0,0,.15.1,2.44,2.44,0,0,1,1.8.94,1.58,1.58,0,0,0,.12.15l.08-.11a2.44,2.44,0,0,1,1.83-1c.09,0,.12,0,.15-.12a2,2,0,0,0,0-1.76,12.11,12.11,0,0,0-1.29-2.09C114,98.36,113.71,98.05,113.46,97.72Zm-.44,7.4a.18.18,0,0,0,0-.06V105a1.69,1.69,0,0,0-.78-1.28,3,3,0,0,0-1.68-.24v.11a1.6,1.6,0,0,0,.91,1.36A3.5,3.5,0,0,0,113,105.12Zm.84,0c.28,0,.55,0,.82,0a1.64,1.64,0,0,0,1.64-1.64h-.84a1.57,1.57,0,0,0-1.12.46A1.62,1.62,0,0,0,113.86,105.11Z"/><path class="cls-1" d="M113.46,97.72c.25.33.5.64.73,1a12.11,12.11,0,0,1,1.29,2.09,2,2,0,0,1,0,1.76c0,.08-.06.12-.15.12a2.44,2.44,0,0,0-1.83,1l-.08.11a1.58,1.58,0,0,1-.12-.15,2.44,2.44,0,0,0-1.8-.94.14.14,0,0,1-.15-.1,1.93,1.93,0,0,1-.08-1.51,7.72,7.72,0,0,1,.93-1.69c.37-.53.76-1,1.15-1.55Z"/><path class="cls-1" d="M113,105.12a3.5,3.5,0,0,1-1.54-.18,1.6,1.6,0,0,1-.91-1.36v-.11a3,3,0,0,1,1.68.24A1.69,1.69,0,0,1,113,105v.07A.18.18,0,0,1,113,105.12Z"/><path class="cls-1" d="M113.86,105.11a1.62,1.62,0,0,1,.5-1.18,1.57,1.57,0,0,1,1.12-.46h.84a1.64,1.64,0,0,1-1.64,1.64C114.41,105.12,114.14,105.11,113.86,105.11Z"/></svg> -->


<svg
  id="Layer_1"
  data-name="Layer 1"
  xmlns="http://www.w3.org/2000/svg"
  viewBox="0 0 226.92 203.2"
  width="100px" 
  height="100px" 
>
"M120.44,101.59v0s0,0,0,0c-.24.52-.47,1-.71,1.57a.42.42,0,0,0,0,.12c-.05.53-.11,1.07-.16,1.61a.29.29,0,0,1-.13.23l-1.28.92a.61.61,0,0,0-.16.16c-.32.43-.63.87-.94,1.31a.26.26,0,0,1-.14.09c-.37,0-.74.07-1.11.12a3.18,3.18,0,0,0-.77.13c-.5.19-1,.43-1.45.64a.31.31,0,0,1-.19,0l-1.48-.67-.15-.05-1.66-.17a.26.26,0,0,1-.18-.09c-.31-.44-.62-.88-.94-1.31a.61.61,0,0,0-.16-.16l-1.31-1a.2.2,0,0,1-.09-.13c0-.38-.07-.76-.12-1.14a2.17,2.17,0,0,0-.13-.76c-.22-.48-.43-1-.64-1.43a.31.31,0,0,1,0-.19c.22-.5.44-1,.67-1.48a.75.75,0,0,0,0-.16c.05-.55.1-1.1.16-1.65a.29.29,0,0,1,.1-.18c.43-.32.87-.63,1.31-.94a.61.61,0,0,0,.16-.16l.94-1.31a.22.22,0,0,1,.14-.09c.36,0,.72-.09,1.08-.11a3,3,0,0,0,1.21-.31c.36-.19.74-.35,1.11-.52h0s0,0,0,0l1.55.71.12,0c.54.05,1.07.11,1.61.15a.3.3,0,0,1,.23.14c.3.42.6.85.91,1.27a1,1,0,0,0,.18.18l1.3.93a.22.22,0,0,1,.09.14c0,.35.09.7.11,1.06a3.08,3.08,0,0,0,.33,1.29C120.13,100.88,120.28,101.24,120.44,101.59Zm-4.08,1.06c0-.06,0-.09,0-.11a3,3,0,0,0,.13-1.14,4.24,4.24,0,0,0-.55-1.5,19.79,19.79,0,0,0-2.49-3.4l-.06,0c-.39.48-.78,1-1.16,1.43a13.63,13.63,0,0,0-1.54,2.4,2.86,2.86,0,0,0-.28,2c0,.1,0,.21.09.33h-.79c0,.31,0,.6,0,.89a2.47,2.47,0,0,0,2.5,2.4h2.49a2.33,2.33,0,0,0,1.35-.43,2.8,2.8,0,0,0,1-2.85Z"/><path class="cls-2" d="M116.36,102.65h.77a2.8,2.8,0,0,1-1,2.85,2.33,2.33,0,0,1-1.35.43h-2.49a2.47,2.47,0,0,1-2.5-2.4c0-.29,0-.58,0-.89h.79c0-.12-.06-.23-.09-.33a2.86,2.86,0,0,1,.28-2,13.63,13.63,0,0,1,1.54-2.4c.38-.48.77-1,1.16-1.43l.06,0A19.79,19.79,0,0,1,116,99.9a4.24,4.24,0,0,1,.55,1.5,3,3,0,0,1-.13,1.14S116.38,102.59,116.36,102.65Zm-2.9-4.93-.08.08c-.39.52-.78,1-1.15,1.55a7.72,7.72,0,0,0-.93,1.69,1.93,1.93,0,0,0,.08,1.51.14.14,0,0,0,.15.1,2.44,2.44,0,0,1,1.8.94,1.58,1.58,0,0,0,.12.15l.08-.11a2.44,2.44,0,0,1,1.83-1c.09,0,.12,0,.15-.12a2,2,0,0,0,0-1.76,12.11,12.11,0,0,0-1.29-2.09C114,98.36,113.71,98.05,113.46,97.72Zm-.44,7.4a.18.18,0,0,0,0-.06V105a1.69,1.69,0,0,0-.78-1.28,3,3,0,0,0-1.68-.24v.11a1.6,1.6,0,0,0,.91,1.36A3.5,3.5,0,0,0,113,105.12Zm.84,0c.28,0,.55,0,.82,0a1.64,1.64,0,0,0,1.64-1.64h-.84a1.57,1.57,0,0,0-1.12.46A1.62,1.62,0,0,0,113.86,105.11Z"/><path class="cls-1" d="M113.46,97.72c.25.33.5.64.73,1a12.11,12.11,0,0,1,1.29,2.09,2,2,0,0,1,0,1.76c0,.08-.06.12-.15.12a2.44,2.44,0,0,0-1.83,1l-.08.11a1.58,1.58,0,0,1-.12-.15,2.44,2.44,0,0,0-1.8-.94.14.14,0,0,1-.15-.1,1.93,1.93,0,0,1-.08-1.51,7.72,7.72,0,0,1,.93-1.69c.37-.53.76-1,1.15-1.55Z"/><path class="cls-1" d="M113,105.12a3.5,3.5,0,0,1-1.54-.18,1.6,1.6,0,0,1-.91-1.36v-.11a3,3,0,0,1,1.68.24A1.69,1.69,0,0,1,113,105v.07A.18.18,0,0,1,113,105.12Z"/><path class="cls-1" d="M113.86,105.11a1.62,1.62,0,0,1,.5-1.18,1.57,1.57,0,0,1,1.12-.46h.84a1.64,1.64,0,0,1-1.64,1.64C114.41,105.12,114.14,105.11,113.86,105.11Z"
</svg>
